<svg width="389" height="42" viewBox="0 0 389 42" fill="none" xmlns="http://www.w3.org/2000/svg">
<path fill-rule="evenodd" clip-rule="evenodd" d="M23.7474 2.0904C23.0549 1.3781 22.2851 0.824075 21.3986 0.960613C20.2346 0.949261 19.2275 1.23159 18.2491 1.50611C17.8618 1.61466 17.4792 1.72197 17.0928 1.80943C15.5949 2.15255 14.1017 2.52313 12.6084 2.89373C10.8215 3.3374 9.03457 3.78112 7.23758 4.17786C5.4947 4.56368 4.49921 5.49561 4.03006 7.22099C3.31822 9.83366 2.55228 12.4306 1.78556 15.0278L1.51273 15.9521L1.27468 16.7629L0.824851 18.3013C0.747561 18.5675 0.666407 18.8329 0.585253 19.0982L0.578297 19.1229C0.437629 19.584 0.296962 20.0451 0.177936 20.5104L0.124606 20.7258C0.0967814 20.8426 0.0697299 20.9598 0.0449972 21.0773C-0.20774 22.2724 0.634718 22.9847 1.80643 22.6364C2.49663 22.4326 2.97582 22.0013 3.19146 21.3167C3.35918 20.7809 3.52381 20.2442 3.68534 19.7067C3.85693 19.1347 4.02542 18.562 4.19082 17.9887C4.66924 16.3204 5.14535 14.6511 5.62145 12.9818C6.05814 11.4517 6.4956 9.92155 6.93692 8.39232C7.0915 7.8581 7.3427 7.38322 7.9556 7.23087C12.0736 6.20991 16.1908 5.19092 20.3065 4.16202C20.9751 3.99582 21.5014 4.1739 21.9744 4.66856L22.9235 5.66193L24.7916 7.60814C26.3444 9.22435 27.8971 10.8406 29.4337 12.4722C29.5202 12.564 29.6091 12.6538 29.6972 12.7436C30.2096 13.2639 30.7205 13.7823 30.8148 14.6547C30.9709 16.0832 32.3282 17.0745 33.6367 16.9321C35.1021 16.7718 36.2382 15.551 36.2104 14.164C36.1826 12.6978 35.0271 11.5324 33.4976 11.4829C33.0153 11.4671 32.6651 11.3207 32.332 10.9744C29.5171 8.04432 26.6914 5.12766 23.8634 2.20931L23.7474 2.0904ZM33.5037 12.5534C34.4281 12.5811 35.1338 13.2993 35.1245 14.2055C35.1145 15.1018 34.2952 15.9131 33.4249 15.8854C32.5817 15.8616 31.8041 15.0544 31.7925 14.1937C31.7786 13.2578 32.5422 12.5257 33.5037 12.5534Z" fill="url(#paint0_linear_5040_642)"/>
<path fill-rule="evenodd" clip-rule="evenodd" d="M6.13157 24.9574C4.67929 25.0108 3.52999 26.2415 3.52767 27.7473C3.52535 29.0274 4.37632 30.1434 5.69642 30.357C6.40053 30.4698 6.85191 30.826 7.29864 31.291C10.1027 34.2035 12.9083 37.116 15.7217 40.0206C16.5294 40.8537 17.487 41.2593 18.6664 40.9645C19.6217 40.7251 20.5817 40.4975 21.5393 40.2621C22.5765 40.008 23.613 39.7511 24.6494 39.4941C27.1312 38.8785 29.613 38.263 32.1048 37.6879C33.7727 37.302 34.7605 36.3978 35.2149 34.7258C35.8727 32.3115 36.5783 29.9096 37.284 27.5077C37.6279 26.3389 37.9719 25.17 38.3096 23.9997L38.4201 23.6189L38.4936 23.3712L38.5005 23.349C38.7556 22.4781 39.0106 21.6066 39.2023 20.7211C39.4218 19.7081 38.7115 19.0749 37.6805 19.2411C36.8117 19.3816 36.2699 19.8149 36.0203 20.6915C35.5024 22.5113 34.9776 24.3293 34.4513 26.147L34.085 27.411C33.826 28.3038 33.5671 29.1967 33.3097 30.0897L32.8359 31.7325L32.356 33.4081C32.1798 34.0234 31.917 34.5181 31.2677 34.6803C29.3649 35.154 27.462 35.6247 25.5591 36.0953L22.3431 36.8914C21.1768 37.1805 20.0105 37.4701 18.8442 37.7611C18.2127 37.9193 17.7444 37.7136 17.3223 37.2644C14.6953 34.4568 12.0674 31.6491 9.42411 28.8573C9.09331 28.507 8.9511 28.1548 8.94105 27.678C8.90781 26.0773 7.67504 24.902 6.13157 24.9574ZM6.23668 29.3598C5.29297 29.3519 4.62596 28.6812 4.62364 27.7334C4.61978 26.7619 5.32389 26.0278 6.25832 26.0298C7.15256 26.0318 7.86672 26.7599 7.87831 27.68C7.89068 28.6673 7.20821 29.3677 6.23668 29.3598Z" fill="url(#paint1_linear_5040_642)"/>
<path d="M26.8143 33.5862C26.8321 34.1342 26.3598 34.4726 25.7894 34.2391C24.6007 33.7524 23.5975 33.1291 23.2706 31.6926C22.6314 28.8922 21.9358 26.1056 21.2402 23.3187L21.2378 23.3111L20.2547 19.3616L19.757 17.3731C19.3698 15.8329 18.9825 14.2924 18.6054 12.7493C18.5822 12.6532 18.5482 12.5543 18.5134 12.454C18.3843 12.0831 18.2491 11.6941 18.6309 11.3701C19.0374 11.0252 19.4161 11.2282 19.7871 11.4266C19.8799 11.4763 19.9718 11.5256 20.0638 11.566C21.1637 12.0488 21.7356 12.8798 22.0046 14.071C22.5309 16.3853 23.1121 18.6872 23.6933 20.9895L23.9847 22.1427L24.3534 23.6139L26.7432 33.2241L26.7672 33.3381L26.788 33.4454L26.795 33.4808L26.8143 33.5862Z" fill="url(#paint2_linear_5040_642)"/>
<path d="M20.5693 30.4579C21.0106 30.4896 21.3631 30.3828 21.377 29.7991L21.3298 29.5665C21.3066 29.4444 21.2811 29.3137 21.2518 29.1837L19.9185 23.8455C18.7793 19.2888 17.64 14.7321 16.5371 10.1671C16.2202 8.86323 15.4427 8.12321 14.2995 7.62855C13.927 7.46829 13.5352 7.34562 13.175 7.62855C12.797 7.92534 13.0034 8.31515 13.0884 8.65745L13.3218 9.59949C13.4733 10.2055 13.6264 10.8108 13.7794 11.4161L13.8884 11.8416C14.0916 12.6444 14.2941 13.4472 14.4928 14.251C15.0083 16.342 15.5215 18.4337 16.0347 20.5255L16.0486 20.5807C16.6754 23.1381 17.3023 25.6955 17.9337 28.2518C18.195 29.3064 19.5066 30.3847 20.5693 30.4579Z" fill="url(#paint3_linear_5040_642)"/>
<path d="M14.5762 22.6028C13.2368 22.5751 12.4315 21.9499 12.1068 20.6499C11.1693 16.8984 10.2395 13.143 9.30972 9.38955C9.1335 8.67527 9.46971 8.23206 10.1823 8.3943L10.4861 8.4621C11.7103 8.73228 12.2993 8.86248 12.651 10.4481C13.2129 12.9637 13.8412 15.4639 14.4704 17.964C14.7726 19.1668 15.0748 20.3695 15.37 21.5739C15.5462 22.2941 15.2773 22.6186 14.5762 22.6028Z" fill="url(#paint4_linear_5040_642)"/>
<path d="M29.6949 33.8315C30.079 33.8711 30.433 33.695 30.4052 33.1825L30.3619 33.003L30.3202 32.8264C30.0535 31.7506 29.7815 30.6762 29.5094 29.6018C28.8316 26.9256 28.1545 24.2499 27.5586 21.5561C27.2556 20.1869 26.5376 19.8308 25.0575 19.6388C24.3967 19.5538 24.096 19.9099 24.2382 20.4956C24.5636 21.8285 24.8937 23.16 25.2237 24.4914C25.8474 27.01 26.4719 29.5281 27.0616 32.0547C27.3801 33.418 28.3817 33.697 29.6949 33.8315Z" fill="url(#paint5_linear_5040_642)"/>
<path d="M50.2002 12.0252C50.2002 11.9031 50.2408 11.798 50.3222 11.7099C50.4036 11.6217 50.5155 11.5776 50.6579 11.5776H53.6691C53.7844 11.5776 53.8895 11.6183 53.9845 11.6997C54.0794 11.7811 54.1303 11.8896 54.137 12.0252V23.0933H59.7321C59.8542 23.0933 59.9593 23.134 60.0475 23.2153C60.1356 23.2967 60.1797 23.4086 60.1797 23.551V26.2265C60.1797 26.3418 60.139 26.4469 60.0576 26.5419C59.983 26.6368 59.8745 26.6877 59.7321 26.6945H50.6478C50.3494 26.6945 50.2002 26.5453 50.2002 26.2469V12.0252ZM73.6632 25.1482C73.0664 25.6975 72.395 26.1282 71.649 26.4401C70.903 26.7453 70.1129 26.8979 69.2787 26.8979C68.3496 26.8979 67.4713 26.7284 66.6439 26.3893C65.8165 26.0502 65.0909 25.5822 64.4669 24.9854C63.843 24.3818 63.3479 23.6731 62.9817 22.8593C62.6155 22.0455 62.4324 21.1604 62.4324 20.2042C62.4324 19.6074 62.5036 19.0309 62.646 18.4748C62.7952 17.9119 63.0021 17.3863 63.2665 16.898C63.5378 16.4097 63.8634 15.9621 64.2431 15.5552C64.6297 15.1415 65.0604 14.7888 65.5351 14.4972C66.0098 14.2056 66.5252 13.9784 67.0814 13.8156C67.6375 13.6529 68.2241 13.5715 68.8413 13.5715C69.4042 13.5715 69.9501 13.6461 70.4791 13.7953C71.0081 13.9445 71.5032 14.1547 71.9643 14.426C72.4323 14.6973 72.8595 15.0228 73.2461 15.4026C73.6327 15.7824 73.965 16.1995 74.243 16.6539C74.5211 17.1015 74.7347 17.583 74.8839 18.0984C75.0399 18.607 75.1179 19.1326 75.1179 19.6752C75.1179 20.0279 75.1111 20.3161 75.0976 20.5399C75.0908 20.7637 75.0399 20.9434 74.945 21.079C74.85 21.2079 74.6907 21.2995 74.4669 21.3537C74.2498 21.4012 73.9277 21.4249 73.5004 21.4249H66.176C66.2438 21.859 66.3794 22.2218 66.5829 22.5134C66.7931 22.805 67.0339 23.039 67.3052 23.2153C67.5764 23.3849 67.8647 23.507 68.1699 23.5816C68.475 23.6562 68.7633 23.6935 69.0345 23.6935C69.2787 23.6935 69.5296 23.6697 69.7873 23.6223C70.0451 23.568 70.2926 23.5002 70.53 23.4188C70.7741 23.3306 70.9945 23.2323 71.1912 23.1238C71.3947 23.0085 71.5574 22.8898 71.6795 22.7677C71.788 22.6796 71.8796 22.6151 71.9542 22.5745C72.0355 22.527 72.1203 22.5032 72.2085 22.5032C72.2966 22.5032 72.3848 22.5338 72.473 22.5948C72.5679 22.6558 72.673 22.744 72.7883 22.8593L73.8667 24.08C73.9413 24.1682 73.9887 24.2496 74.0091 24.3242C74.0294 24.392 74.0396 24.4632 74.0396 24.5378C74.0396 24.6735 74.0023 24.7921 73.9277 24.8939C73.8531 24.9888 73.7649 25.0736 73.6632 25.1482ZM68.7701 16.6742C68.5056 16.6742 68.2478 16.7285 67.9969 16.837C67.7528 16.9387 67.5222 17.0777 67.3052 17.2541C67.0881 17.4304 66.8915 17.6305 66.7151 17.8543C66.5456 18.0781 66.4066 18.3052 66.2981 18.5358H71.4964C71.354 18.2713 71.198 18.0272 71.0284 17.8034C70.8657 17.5796 70.6758 17.3829 70.4587 17.2134C70.2485 17.0438 70.0044 16.9116 69.7263 16.8166C69.455 16.7217 69.1363 16.6742 68.7701 16.6742ZM91.2395 25.9417C91.2395 26.057 91.2191 26.1689 91.1785 26.2774C91.1378 26.3791 91.0699 26.4605 90.975 26.5215C90.9004 26.5961 90.8122 26.6436 90.7105 26.6639C90.6088 26.6843 90.5206 26.6945 90.446 26.6945H88.442C88.2995 26.6945 88.1842 26.6775 88.0961 26.6436C88.0079 26.6029 87.9367 26.5486 87.8825 26.4808C87.8282 26.413 87.7807 26.3316 87.74 26.2367C87.7061 26.135 87.6688 26.0264 87.6281 25.9111L87.4959 25.4534C87.3128 25.6365 87.1025 25.8162 86.8652 25.9925C86.6346 26.1689 86.3769 26.3282 86.092 26.4707C85.814 26.6063 85.5122 26.7148 85.1866 26.7962C84.8679 26.8844 84.5356 26.9284 84.1897 26.9284C83.5726 26.9284 82.9791 26.8504 82.4095 26.6945C81.8466 26.5385 81.3176 26.3181 80.8225 26.0332C80.3342 25.7416 79.89 25.3957 79.4899 24.9956C79.0897 24.5887 78.7438 24.1377 78.4522 23.6426C78.1674 23.1475 77.947 22.6151 77.791 22.0455C77.635 21.469 77.557 20.8688 77.557 20.2449C77.557 19.3022 77.7299 18.4273 78.0758 17.6203C78.4217 16.8064 78.893 16.1011 79.4899 15.5043C80.0867 14.9007 80.7886 14.4294 81.5956 14.0903C82.4027 13.7444 83.2674 13.5715 84.1897 13.5715C84.6102 13.5715 85.0001 13.619 85.3596 13.7139C85.7258 13.8089 86.0581 13.9377 86.3565 14.1005C86.6617 14.2632 86.9364 14.4599 87.1805 14.6905C87.4247 14.9143 87.6383 15.1584 87.8214 15.4229L88.1164 14.4972C88.1842 14.3277 88.2385 14.192 88.2792 14.0903C88.3267 13.9818 88.3741 13.9038 88.4216 13.8563C88.4759 13.8021 88.5403 13.7682 88.6149 13.7546C88.6895 13.7342 88.7946 13.7241 88.9303 13.7241H90.446C90.5206 13.7241 90.6088 13.7342 90.7105 13.7546C90.8122 13.7749 90.9004 13.8224 90.975 13.897C91.0699 13.9716 91.1378 14.0564 91.1785 14.1513C91.2191 14.2463 91.2395 14.3548 91.2395 14.4769V25.9417ZM81.2192 20.2449C81.2192 20.6925 81.2871 21.113 81.4227 21.5063C81.5651 21.8929 81.7652 22.2286 82.0229 22.5134C82.2806 22.7983 82.5892 23.0255 82.9486 23.195C83.3148 23.3578 83.7184 23.4391 84.1592 23.4391C84.6136 23.4391 85.0341 23.3578 85.4206 23.195C85.814 23.0255 86.1531 22.7983 86.4379 22.5134C86.7295 22.2286 86.9567 21.8929 87.1195 21.5063C87.2823 21.113 87.3636 20.6925 87.3636 20.2449C87.3636 19.8108 87.2823 19.3971 87.1195 19.0038C86.9567 18.6104 86.7295 18.2646 86.4379 17.9662C86.1531 17.6678 85.814 17.4338 85.4206 17.2642C85.0341 17.0879 84.6136 16.9997 84.1592 16.9997C83.7184 16.9997 83.3148 17.0879 82.9486 17.2642C82.5892 17.4338 82.2806 17.6678 82.0229 17.9662C81.7652 18.2646 81.5651 18.6104 81.4227 19.0038C81.2871 19.3971 81.2192 19.8108 81.2192 20.2449ZM94.6436 13.9479C94.7317 13.8733 94.8233 13.8258 94.9183 13.8055C95.02 13.7851 95.1149 13.7749 95.2031 13.7749H96.7392C96.8613 13.7749 96.9664 13.7987 97.0545 13.8462C97.1427 13.8868 97.2173 13.9445 97.2784 14.0191C97.3394 14.0937 97.3869 14.1785 97.4208 14.2734C97.4615 14.3684 97.4988 14.4667 97.5327 14.5684L97.7463 15.4636C97.848 15.2534 98.0108 15.0364 98.2346 14.8126C98.4652 14.5888 98.7466 14.3853 99.0789 14.2022C99.418 14.0191 99.808 13.8699 100.249 13.7546C100.69 13.6325 101.181 13.5715 101.724 13.5715C102.497 13.5715 103.185 13.7207 103.789 14.0191C104.399 14.3175 104.915 14.7244 105.335 15.2398C105.763 15.7553 106.085 16.3588 106.302 17.0506C106.525 17.7356 106.637 18.468 106.637 19.2479V25.9111C106.637 26.1689 106.58 26.3655 106.464 26.5012C106.356 26.63 106.18 26.6945 105.935 26.6945H103.586C103.294 26.6945 103.094 26.647 102.985 26.552C102.877 26.4503 102.823 26.257 102.823 25.9722V19.3497C102.823 19.058 102.755 18.7834 102.619 18.5257C102.49 18.2612 102.317 18.0306 102.1 17.8339C101.883 17.6305 101.636 17.4711 101.358 17.3558C101.086 17.2405 100.808 17.1828 100.523 17.1828C100.279 17.1828 100.028 17.2371 99.7707 17.3456C99.5198 17.4541 99.2858 17.6067 99.0688 17.8034C98.8585 17.9933 98.6788 18.2205 98.5296 18.485C98.3872 18.7427 98.3058 19.0241 98.2855 19.3293V25.9417C98.2855 26.057 98.2617 26.1723 98.2143 26.2875C98.1736 26.4028 98.1091 26.491 98.021 26.552C97.9328 26.6063 97.848 26.6436 97.7666 26.6639C97.692 26.6843 97.6039 26.6945 97.5022 26.6945H95.2031C94.9115 26.6945 94.7012 26.6232 94.5724 26.4808C94.4435 26.3384 94.3791 26.1485 94.3791 25.9111V14.5277C94.3791 14.3989 94.4062 14.2802 94.4605 14.1717C94.5215 14.0632 94.6029 13.9784 94.7046 13.9174L94.6436 13.9479ZM117.082 12.0557C117.082 11.9133 117.12 11.8014 117.194 11.72C117.269 11.6319 117.381 11.5878 117.53 11.5878H124.031C124.498 11.5878 124.939 11.6522 125.353 11.7811C125.767 11.9099 126.146 12.0896 126.492 12.3202C126.838 12.544 127.15 12.8153 127.428 13.1341C127.706 13.446 127.94 13.7851 128.13 14.1513C128.327 14.5176 128.476 14.9041 128.578 15.311C128.68 15.7112 128.73 16.1181 128.73 16.5318C128.73 17.1422 128.619 17.739 128.395 18.3222C128.178 18.9054 127.866 19.4243 127.459 19.8786C127.052 20.333 126.564 20.7027 125.994 20.9875C125.424 21.2655 124.794 21.408 124.102 21.4147H121.019V26.257C121.019 26.5486 120.863 26.6945 120.551 26.6945H117.53C117.394 26.6945 117.286 26.6605 117.205 26.5927C117.123 26.5181 117.082 26.4062 117.082 26.257V12.0557ZM124.743 16.5114C124.743 16.308 124.705 16.1045 124.631 15.9011C124.563 15.6976 124.461 15.5179 124.326 15.3619C124.19 15.1991 124.024 15.0669 123.827 14.9652C123.637 14.8634 123.42 14.8126 123.176 14.8126H121.019V18.2103H123.176C123.42 18.2103 123.641 18.1628 123.837 18.0679C124.034 17.9662 124.197 17.8373 124.326 17.6813C124.461 17.5253 124.563 17.3456 124.631 17.1422C124.705 16.9387 124.743 16.7285 124.743 16.5114ZM131.228 10.7129C131.228 10.4959 131.282 10.3128 131.391 10.1636C131.499 10.0144 131.686 9.93978 131.95 9.93978H134.442C134.51 9.93978 134.581 9.96012 134.656 10.0008C134.731 10.0347 134.799 10.0856 134.86 10.1534C134.927 10.2212 134.982 10.3026 135.022 10.3976C135.07 10.4925 135.094 10.5976 135.094 10.7129V25.9111C135.094 26.1689 135.019 26.3655 134.87 26.5012C134.727 26.63 134.541 26.6945 134.31 26.6945H131.95C131.686 26.6945 131.499 26.63 131.391 26.5012C131.282 26.3655 131.228 26.1689 131.228 25.9111V10.7129ZM151.522 25.9417C151.522 26.057 151.501 26.1689 151.461 26.2774C151.42 26.3791 151.352 26.4605 151.257 26.5215C151.182 26.5961 151.094 26.6436 150.993 26.6639C150.891 26.6843 150.803 26.6945 150.728 26.6945H148.724C148.582 26.6945 148.466 26.6775 148.378 26.6436C148.29 26.6029 148.219 26.5486 148.165 26.4808C148.11 26.413 148.063 26.3316 148.022 26.2367C147.988 26.135 147.951 26.0264 147.91 25.9111L147.778 25.4534C147.595 25.6365 147.385 25.8162 147.147 25.9925C146.917 26.1689 146.659 26.3282 146.374 26.4707C146.096 26.6063 145.794 26.7148 145.469 26.7962C145.15 26.8844 144.818 26.9284 144.472 26.9284C143.855 26.9284 143.261 26.8504 142.692 26.6945C142.129 26.5385 141.6 26.3181 141.105 26.0332C140.616 25.7416 140.172 25.3957 139.772 24.9956C139.372 24.5887 139.026 24.1377 138.734 23.6426C138.449 23.1475 138.229 22.6151 138.073 22.0455C137.917 21.469 137.839 20.8688 137.839 20.2449C137.839 19.3022 138.012 18.4273 138.358 17.6203C138.704 16.8064 139.175 16.1011 139.772 15.5043C140.369 14.9007 141.071 14.4294 141.878 14.0903C142.685 13.7444 143.549 13.5715 144.472 13.5715C144.892 13.5715 145.282 13.619 145.642 13.7139C146.008 13.8089 146.34 13.9377 146.639 14.1005C146.944 14.2632 147.218 14.4599 147.463 14.6905C147.707 14.9143 147.92 15.1584 148.103 15.4229L148.398 14.4972C148.466 14.3277 148.521 14.192 148.561 14.0903C148.609 13.9818 148.656 13.9038 148.704 13.8563C148.758 13.8021 148.822 13.7682 148.897 13.7546C148.972 13.7342 149.077 13.7241 149.212 13.7241H150.728C150.803 13.7241 150.891 13.7342 150.993 13.7546C151.094 13.7749 151.182 13.8224 151.257 13.897C151.352 13.9716 151.42 14.0564 151.461 14.1513C151.501 14.2463 151.522 14.3548 151.522 14.4769V25.9417ZM141.501 20.2449C141.501 20.6925 141.569 21.113 141.705 21.5063C141.847 21.8929 142.047 22.2286 142.305 22.5134C142.563 22.7983 142.871 23.0255 143.231 23.195C143.597 23.3578 144 23.4391 144.441 23.4391C144.896 23.4391 145.316 23.3578 145.703 23.195C146.096 23.0255 146.435 22.7983 146.72 22.5134C147.012 22.2286 147.239 21.8929 147.402 21.5063C147.564 21.113 147.646 20.6925 147.646 20.2449C147.646 19.8108 147.564 19.3971 147.402 19.0038C147.239 18.6104 147.012 18.2646 146.72 17.9662C146.435 17.6678 146.096 17.4338 145.703 17.2642C145.316 17.0879 144.896 16.9997 144.441 16.9997C144 16.9997 143.597 17.0879 143.231 17.2642C142.871 17.4338 142.563 17.6678 142.305 17.9662C142.047 18.2646 141.847 18.6104 141.705 19.0038C141.569 19.3971 141.501 19.8108 141.501 20.2449ZM155.444 11.7607C155.444 11.5505 155.512 11.3945 155.648 11.2928C155.79 11.1843 155.99 11.0825 156.248 10.9876L158.557 10.1839C158.591 10.1771 158.622 10.1738 158.649 10.1738C158.683 10.1738 158.713 10.1738 158.74 10.1738C158.991 10.1738 159.158 10.2484 159.239 10.3976C159.327 10.54 159.371 10.7299 159.371 10.9672L159.361 13.7648H160.755C160.972 13.7648 161.148 13.8292 161.284 13.9581C161.419 14.0869 161.487 14.2802 161.487 14.5379V16.5013C161.487 16.7861 161.419 16.9963 161.284 17.132C161.148 17.2608 160.972 17.3253 160.755 17.3253H159.361L159.371 25.9111C159.371 26.1689 159.297 26.3655 159.147 26.5012C158.998 26.63 158.791 26.6945 158.527 26.6945H156.228C155.706 26.6945 155.444 26.4334 155.444 25.9111L155.434 17.3253H154.386C153.864 17.3253 153.603 17.0506 153.603 16.5013V14.5379C153.603 14.0225 153.864 13.7648 154.386 13.7648H155.434L155.444 11.7607ZM165.334 13.9581C165.334 13.3273 165.469 12.7339 165.741 12.1778C166.012 11.6217 166.375 11.1368 166.829 10.7231C167.284 10.3026 167.806 9.97369 168.396 9.73632C168.986 9.49217 169.603 9.3701 170.247 9.3701H170.451C170.681 9.3701 170.858 9.44131 170.98 9.58373C171.109 9.71937 171.173 9.90926 171.173 10.1534V12.0964C171.173 12.3474 171.105 12.5576 170.969 12.7271C170.841 12.8899 170.668 12.9713 170.451 12.9713H170.247C170.105 12.9713 169.969 12.9984 169.84 13.0527C169.711 13.1001 169.596 13.168 169.494 13.2561C169.393 13.3443 169.311 13.4494 169.25 13.5715C169.189 13.6868 169.159 13.8156 169.159 13.9581V15.1279H170.756C170.986 15.1279 171.163 15.1924 171.285 15.3212C171.414 15.4433 171.478 15.64 171.478 15.9112V17.7729C171.478 18.0645 171.414 18.2781 171.285 18.4138C171.163 18.5494 170.986 18.6172 170.756 18.6172H169.159V25.9111C169.159 26.1689 169.071 26.3655 168.894 26.5012C168.725 26.63 168.538 26.6945 168.335 26.6945H166.137C165.893 26.6945 165.697 26.6199 165.547 26.4707C165.405 26.3147 165.334 26.1282 165.334 25.9111V18.6172H164.286C164.049 18.6172 163.855 18.5494 163.706 18.4138C163.564 18.2781 163.492 18.0645 163.492 17.7729V15.9112C163.492 15.64 163.564 15.4433 163.706 15.3212C163.855 15.1924 164.049 15.1279 164.286 15.1279H165.334V13.9581ZM173.227 20.2449C173.227 19.6209 173.305 19.0207 173.461 18.4443C173.624 17.8678 173.848 17.3354 174.133 16.8471C174.424 16.3521 174.77 15.9045 175.17 15.5043C175.577 15.0974 176.028 14.7515 176.523 14.4667C177.018 14.1819 177.551 13.9614 178.12 13.8055C178.697 13.6495 179.297 13.5715 179.921 13.5715C180.843 13.5715 181.708 13.7444 182.515 14.0903C183.329 14.4294 184.034 14.9007 184.631 15.5043C185.235 16.1011 185.709 16.8064 186.055 17.6203C186.408 18.4273 186.584 19.3022 186.584 20.2449C186.584 20.8688 186.503 21.469 186.34 22.0455C186.184 22.6151 185.96 23.1475 185.669 23.6426C185.384 24.1377 185.038 24.5887 184.631 24.9956C184.231 25.3957 183.783 25.7416 183.288 26.0332C182.793 26.3181 182.261 26.5385 181.691 26.6945C181.128 26.8504 180.538 26.9284 179.921 26.9284C179.297 26.9284 178.697 26.8504 178.12 26.6945C177.551 26.5385 177.018 26.3181 176.523 26.0332C176.028 25.7416 175.577 25.3957 175.17 24.9956C174.77 24.5887 174.424 24.1377 174.133 23.6426C173.848 23.1475 173.624 22.6151 173.461 22.0455C173.305 21.469 173.227 20.8688 173.227 20.2449ZM176.94 20.2449C176.94 20.6925 177.008 21.113 177.144 21.5063C177.286 21.8929 177.483 22.2286 177.734 22.5134C177.992 22.7983 178.3 23.0255 178.66 23.195C179.026 23.3578 179.436 23.4391 179.89 23.4391C180.331 23.4391 180.728 23.3578 181.081 23.195C181.44 23.0255 181.742 22.7983 181.986 22.5134C182.237 22.2286 182.427 21.8929 182.556 21.5063C182.691 21.113 182.759 20.6925 182.759 20.2449C182.759 19.8108 182.691 19.3971 182.556 19.0038C182.427 18.6104 182.237 18.2646 181.986 17.9662C181.742 17.6678 181.44 17.4338 181.081 17.2642C180.728 17.0879 180.331 16.9997 179.89 16.9997C179.436 16.9997 179.026 17.0879 178.66 17.2642C178.3 17.4338 177.992 17.6678 177.734 17.9662C177.483 18.2646 177.286 18.6104 177.144 19.0038C177.008 19.3971 176.94 19.8108 176.94 20.2449ZM189.304 14.5277C189.304 14.3989 189.328 14.287 189.376 14.192C189.423 14.0971 189.484 14.0191 189.559 13.9581C189.64 13.897 189.728 13.8529 189.823 13.8258C189.925 13.7919 190.023 13.7749 190.118 13.7749H191.654C191.824 13.7749 191.96 13.8258 192.061 13.9275C192.163 14.0293 192.248 14.1581 192.316 14.3141C192.39 14.4701 192.455 14.643 192.509 14.8329C192.563 15.0228 192.628 15.2059 192.702 15.3823C192.906 15.1584 193.106 14.938 193.302 14.721C193.506 14.504 193.723 14.3107 193.953 14.1412C194.184 13.9716 194.435 13.836 194.706 13.7342C194.984 13.6257 195.3 13.5715 195.652 13.5715C196.019 13.5715 196.344 13.5986 196.629 13.6529C196.921 13.7071 197.195 13.7885 197.453 13.897C197.711 13.9987 197.965 14.131 198.216 14.2938C198.474 14.4565 198.752 14.6464 199.05 14.8634C199.342 15.033 199.488 15.233 199.488 15.4636C199.488 15.6128 199.43 15.7858 199.315 15.9824L198.389 17.5592C198.206 17.8237 197.979 17.956 197.707 17.956C197.572 17.956 197.419 17.9187 197.249 17.8441C196.958 17.5592 196.659 17.349 196.354 17.2134C196.056 17.0709 195.713 16.9997 195.327 16.9997C195.062 16.9997 194.828 17.037 194.625 17.1116C194.428 17.1862 194.248 17.2914 194.086 17.427C193.923 17.5626 193.77 17.7254 193.628 17.9153C193.486 18.1052 193.343 18.3154 193.201 18.546V25.9111C193.201 26.1689 193.136 26.3655 193.007 26.5012C192.885 26.63 192.678 26.6945 192.387 26.6945H190.098C189.569 26.6945 189.304 26.4334 189.304 25.9111V14.5277ZM201.971 13.9479C202.059 13.8733 202.151 13.8258 202.246 13.8055C202.347 13.7851 202.442 13.7749 202.531 13.7749H204.067C204.189 13.7749 204.294 13.7987 204.382 13.8462C204.47 13.8868 204.545 13.9445 204.606 14.0191C204.667 14.0937 204.714 14.1785 204.748 14.2734C204.789 14.3684 204.826 14.4667 204.86 14.5684L205.074 15.4636C205.176 15.2534 205.321 15.0364 205.511 14.8126C205.701 14.5888 205.942 14.3853 206.234 14.2022C206.525 14.0191 206.871 13.8699 207.271 13.7546C207.678 13.6325 208.153 13.5715 208.695 13.5715C209.123 13.5715 209.509 13.6156 209.855 13.7037C210.208 13.7851 210.526 13.9106 210.811 14.0801C211.103 14.2429 211.367 14.4463 211.605 14.6905C211.842 14.9279 212.066 15.2025 212.276 15.5145C212.405 15.3043 212.595 15.0838 212.846 14.8533C213.104 14.6227 213.409 14.4124 213.761 14.2225C214.114 14.0327 214.507 13.8767 214.941 13.7546C215.376 13.6325 215.837 13.5715 216.325 13.5715C217.098 13.5715 217.773 13.7207 218.349 14.0191C218.926 14.3175 219.404 14.7244 219.784 15.2398C220.17 15.7553 220.459 16.3588 220.648 17.0506C220.838 17.7356 220.933 18.468 220.933 19.2479V25.9111C220.933 26.1689 220.876 26.3655 220.76 26.5012C220.652 26.63 220.476 26.6945 220.231 26.6945H217.881C217.59 26.6945 217.39 26.647 217.281 26.552C217.173 26.4503 217.118 26.257 217.118 25.9722V19.2479C217.118 18.9563 217.071 18.685 216.976 18.4341C216.888 18.1832 216.762 17.9662 216.6 17.783C216.437 17.5931 216.237 17.4473 215.999 17.3456C215.769 17.2371 215.511 17.1828 215.226 17.1828C214.969 17.1828 214.724 17.2337 214.494 17.3354C214.263 17.4372 214.06 17.5796 213.883 17.7627C213.707 17.939 213.565 18.156 213.456 18.4138C213.355 18.6647 213.304 18.9427 213.304 19.2479V25.9111C213.304 26.1689 213.246 26.3655 213.131 26.5012C213.022 26.63 212.846 26.6945 212.602 26.6945H212.388H212.307H210.252C209.96 26.6945 209.76 26.647 209.652 26.552C209.543 26.4503 209.489 26.257 209.489 25.9722V19.2479C209.489 18.9563 209.445 18.685 209.357 18.4341C209.275 18.1832 209.153 17.9662 208.99 17.783C208.834 17.5931 208.641 17.4473 208.411 17.3456C208.187 17.2371 207.932 17.1828 207.648 17.1828C207.403 17.1828 207.163 17.2337 206.925 17.3354C206.695 17.4304 206.484 17.5694 206.295 17.7525C206.111 17.9289 205.955 18.1425 205.827 18.3934C205.705 18.6443 205.633 18.9224 205.613 19.2276V25.9417C205.613 26.057 205.589 26.1723 205.542 26.2875C205.501 26.4028 205.437 26.491 205.348 26.552C205.26 26.6063 205.176 26.6436 205.094 26.6639C205.02 26.6843 204.931 26.6945 204.83 26.6945H202.531C202.239 26.6945 202.029 26.6232 201.9 26.4808C201.771 26.3384 201.707 26.1485 201.707 25.9111V14.5277C201.707 14.3989 201.734 14.2802 201.788 14.1717C201.849 14.0632 201.93 13.9784 202.032 13.9174L201.971 13.9479ZM230.753 12.0354C230.753 11.8997 230.797 11.7912 230.885 11.7099C230.98 11.6285 231.096 11.5878 231.231 11.5878H242.188C242.31 11.5878 242.418 11.6251 242.513 11.6997C242.608 11.7743 242.662 11.8862 242.676 12.0354V14.5684C242.676 14.6905 242.632 14.8092 242.544 14.9245C242.462 15.033 242.344 15.0872 242.188 15.0872H238.678V26.2163C238.678 26.3384 238.634 26.4503 238.546 26.552C238.457 26.647 238.342 26.6945 238.2 26.6945H235.209C235.094 26.6945 234.985 26.6504 234.883 26.5622C234.782 26.4673 234.731 26.352 234.731 26.2163V15.0872H231.231C231.096 15.0872 230.98 15.0432 230.885 14.955C230.797 14.8668 230.753 14.738 230.753 14.5684V12.0354ZM253.472 25.1482C252.875 25.6975 252.204 26.1282 251.458 26.4401C250.712 26.7453 249.922 26.8979 249.088 26.8979C248.159 26.8979 247.28 26.7284 246.453 26.3893C245.626 26.0502 244.9 25.5822 244.276 24.9854C243.652 24.3818 243.157 23.6731 242.791 22.8593C242.425 22.0455 242.241 21.1604 242.241 20.2042C242.241 19.6074 242.313 19.0309 242.455 18.4748C242.604 17.9119 242.811 17.3863 243.076 16.898C243.347 16.4097 243.672 15.9621 244.052 15.5552C244.439 15.1415 244.869 14.7888 245.344 14.4972C245.819 14.2056 246.334 13.9784 246.89 13.8156C247.447 13.6529 248.033 13.5715 248.65 13.5715C249.213 13.5715 249.759 13.6461 250.288 13.7953C250.817 13.9445 251.312 14.1547 251.773 14.426C252.241 14.6973 252.669 15.0228 253.055 15.4026C253.442 15.7824 253.774 16.1995 254.052 16.6539C254.33 17.1015 254.544 17.583 254.693 18.0984C254.849 18.607 254.927 19.1326 254.927 19.6752C254.927 20.0279 254.92 20.3161 254.907 20.5399C254.9 20.7637 254.849 20.9434 254.754 21.079C254.659 21.2079 254.5 21.2995 254.276 21.3537C254.059 21.4012 253.737 21.4249 253.309 21.4249H245.985C246.053 21.859 246.188 22.2218 246.392 22.5134C246.602 22.805 246.843 23.039 247.114 23.2153C247.385 23.3849 247.674 23.507 247.979 23.5816C248.284 23.6562 248.572 23.6935 248.844 23.6935C249.088 23.6935 249.339 23.6697 249.596 23.6223C249.854 23.568 250.102 23.5002 250.339 23.4188C250.583 23.3306 250.804 23.2323 251 23.1238C251.204 23.0085 251.366 22.8898 251.489 22.7677C251.597 22.6796 251.689 22.6151 251.763 22.5745C251.845 22.527 251.929 22.5032 252.018 22.5032C252.106 22.5032 252.194 22.5338 252.282 22.5948C252.377 22.6558 252.482 22.744 252.597 22.8593L253.676 24.08C253.75 24.1682 253.798 24.2496 253.818 24.3242C253.838 24.392 253.849 24.4632 253.849 24.5378C253.849 24.6735 253.811 24.7921 253.737 24.8939C253.662 24.9888 253.574 25.0736 253.472 25.1482ZM248.579 16.6742C248.315 16.6742 248.057 16.7285 247.806 16.837C247.562 16.9387 247.331 17.0777 247.114 17.2541C246.897 17.4304 246.701 17.6305 246.524 17.8543C246.355 18.0781 246.216 18.3052 246.107 18.5358H251.305C251.163 18.2713 251.007 18.0272 250.837 17.8034C250.675 17.5796 250.485 17.3829 250.268 17.2134C250.058 17.0438 249.813 16.9116 249.535 16.8166C249.264 16.7217 248.945 16.6742 248.579 16.6742ZM266.023 22.7169C266.118 22.6491 266.206 22.6084 266.288 22.5948C266.376 22.5745 266.444 22.5643 266.491 22.5643C266.606 22.5643 266.711 22.588 266.806 22.6355C266.901 22.683 267 22.7847 267.101 22.9407L268.241 24.6599C268.275 24.7141 268.305 24.7752 268.332 24.843C268.366 24.9108 268.383 24.9651 268.383 25.0058C268.383 25.1617 268.332 25.2906 268.231 25.3923C268.136 25.4873 268.031 25.5721 267.915 25.6467C267.359 26.0332 266.749 26.3452 266.084 26.5826C265.426 26.8131 264.728 26.9284 263.989 26.9284C263.378 26.9284 262.788 26.8504 262.218 26.6945C261.656 26.5385 261.13 26.3181 260.642 26.0332C260.153 25.7416 259.706 25.3957 259.299 24.9956C258.892 24.5887 258.546 24.1377 258.261 23.6426C257.976 23.1475 257.753 22.6151 257.59 22.0455C257.434 21.469 257.356 20.8688 257.356 20.2449C257.356 19.6209 257.434 19.0207 257.59 18.4443C257.753 17.8678 257.976 17.3354 258.261 16.8471C258.546 16.3521 258.892 15.9045 259.299 15.5043C259.706 15.0974 260.153 14.7515 260.642 14.4667C261.13 14.1819 261.656 13.9614 262.218 13.8055C262.788 13.6495 263.378 13.5715 263.989 13.5715C264.728 13.5715 265.409 13.6698 266.033 13.8665C266.664 14.0632 267.254 14.3548 267.803 14.7414L267.773 14.7108C267.922 14.799 268.041 14.9041 268.129 15.0262C268.217 15.1415 268.261 15.2873 268.261 15.4636C268.261 15.5857 268.22 15.7112 268.139 15.84L267.234 17.3761C267.044 17.7084 266.813 17.8746 266.542 17.8746C266.481 17.8746 266.406 17.861 266.318 17.8339C266.23 17.8 266.132 17.7457 266.023 17.6711C265.725 17.4745 265.403 17.3151 265.057 17.193C264.718 17.0642 264.355 16.9997 263.968 16.9997C263.541 16.9997 263.148 17.0879 262.788 17.2642C262.429 17.4338 262.12 17.6678 261.862 17.9662C261.612 18.2646 261.415 18.6104 261.272 19.0038C261.13 19.3971 261.059 19.8108 261.059 20.2449C261.059 20.6925 261.13 21.113 261.272 21.5063C261.415 21.8929 261.612 22.2286 261.862 22.5134C262.12 22.7983 262.429 23.0255 262.788 23.195C263.148 23.3578 263.541 23.4391 263.968 23.4391C264.355 23.4391 264.718 23.3713 265.057 23.2357C265.396 23.1001 265.718 22.9271 266.023 22.7169ZM274.915 15.1279C275.044 14.938 275.221 14.7515 275.444 14.5684C275.675 14.3785 275.936 14.2124 276.228 14.07C276.526 13.9208 276.855 13.8021 277.215 13.7139C277.574 13.619 277.954 13.5715 278.354 13.5715C279.127 13.5715 279.795 13.7207 280.358 14.0191C280.928 14.3175 281.396 14.7244 281.762 15.2398C282.135 15.7553 282.409 16.3588 282.586 17.0506C282.769 17.7356 282.86 18.468 282.86 19.2479V25.9111C282.86 26.1689 282.803 26.3655 282.688 26.5012C282.579 26.63 282.403 26.6945 282.159 26.6945H279.809C279.517 26.6945 279.317 26.647 279.208 26.552C279.1 26.4503 279.046 26.257 279.046 25.9722V19.2479C279.046 18.9563 278.988 18.685 278.873 18.4341C278.764 18.1832 278.615 17.9662 278.425 17.783C278.235 17.5931 278.011 17.4473 277.754 17.3456C277.503 17.2371 277.235 17.1828 276.95 17.1828C276.706 17.1828 276.465 17.2337 276.228 17.3354C275.997 17.4304 275.787 17.5694 275.597 17.7525C275.414 17.9289 275.258 18.1425 275.129 18.3934C275.007 18.6443 274.936 18.9224 274.915 19.2276V25.9417C274.915 26.057 274.892 26.1723 274.844 26.2875C274.804 26.4028 274.739 26.491 274.651 26.552C274.563 26.6063 274.478 26.6436 274.397 26.6639C274.322 26.6843 274.234 26.6945 274.132 26.6945H271.833C271.541 26.6945 271.331 26.6232 271.202 26.4808C271.074 26.3384 271.009 26.1485 271.009 25.9111V17.6305V17.5592V14.5277V14.4769V10.7027C271.009 10.4722 271.074 10.2857 271.202 10.1432C271.331 10.0008 271.541 9.9296 271.833 9.9296H274.132C274.288 9.9296 274.461 9.98386 274.651 10.0924C274.739 10.1534 274.804 10.2416 274.844 10.3569C274.892 10.4722 274.915 10.5807 274.915 10.6824V15.1279ZM286.259 13.9479C286.347 13.8733 286.438 13.8258 286.533 13.8055C286.635 13.7851 286.73 13.7749 286.818 13.7749H288.354C288.476 13.7749 288.581 13.7987 288.67 13.8462C288.758 13.8868 288.832 13.9445 288.893 14.0191C288.954 14.0937 289.002 14.1785 289.036 14.2734C289.077 14.3684 289.114 14.4667 289.148 14.5684L289.361 15.4636C289.463 15.2534 289.626 15.0364 289.85 14.8126C290.08 14.5888 290.362 14.3853 290.694 14.2022C291.033 14.0191 291.423 13.8699 291.864 13.7546C292.305 13.6325 292.796 13.5715 293.339 13.5715C294.112 13.5715 294.8 13.7207 295.404 14.0191C296.014 14.3175 296.53 14.7244 296.95 15.2398C297.378 15.7553 297.7 16.3588 297.917 17.0506C298.141 17.7356 298.252 18.468 298.252 19.2479V25.9111C298.252 26.1689 298.195 26.3655 298.08 26.5012C297.971 26.63 297.795 26.6945 297.551 26.6945H295.201C294.909 26.6945 294.709 26.647 294.6 26.552C294.492 26.4503 294.438 26.257 294.438 25.9722V19.3497C294.438 19.058 294.37 18.7834 294.234 18.5257C294.105 18.2612 293.932 18.0306 293.715 17.8339C293.498 17.6305 293.251 17.4711 292.973 17.3558C292.701 17.2405 292.423 17.1828 292.139 17.1828C291.894 17.1828 291.644 17.2371 291.386 17.3456C291.135 17.4541 290.901 17.6067 290.684 17.8034C290.474 17.9933 290.294 18.2205 290.145 18.485C290.002 18.7427 289.921 19.0241 289.901 19.3293V25.9417C289.901 26.057 289.877 26.1723 289.829 26.2875C289.789 26.4028 289.724 26.491 289.636 26.552C289.548 26.6063 289.463 26.6436 289.382 26.6639C289.307 26.6843 289.219 26.6945 289.117 26.6945H286.818C286.527 26.6945 286.316 26.6232 286.187 26.4808C286.059 26.3384 285.994 26.1485 285.994 25.9111V14.5277C285.994 14.3989 286.021 14.2802 286.076 14.1717C286.137 14.0632 286.218 13.9784 286.32 13.9174L286.259 13.9479ZM301 20.2449C301 19.6209 301.078 19.0207 301.234 18.4443C301.397 17.8678 301.62 17.3354 301.905 16.8471C302.197 16.3521 302.543 15.9045 302.943 15.5043C303.35 15.0974 303.801 14.7515 304.296 14.4667C304.791 14.1819 305.323 13.9614 305.893 13.8055C306.469 13.6495 307.07 13.5715 307.694 13.5715C308.616 13.5715 309.481 13.7444 310.288 14.0903C311.101 14.4294 311.807 14.9007 312.404 15.5043C313.007 16.1011 313.482 16.8064 313.828 17.6203C314.18 18.4273 314.357 19.3022 314.357 20.2449C314.357 20.8688 314.275 21.469 314.113 22.0455C313.957 22.6151 313.733 23.1475 313.441 23.6426C313.156 24.1377 312.81 24.5887 312.404 24.9956C312.003 25.3957 311.556 25.7416 311.061 26.0332C310.566 26.3181 310.033 26.5385 309.464 26.6945C308.901 26.8504 308.311 26.9284 307.694 26.9284C307.07 26.9284 306.469 26.8504 305.893 26.6945C305.323 26.5385 304.791 26.3181 304.296 26.0332C303.801 25.7416 303.35 25.3957 302.943 24.9956C302.543 24.5887 302.197 24.1377 301.905 23.6426C301.62 23.1475 301.397 22.6151 301.234 22.0455C301.078 21.469 301 20.8688 301 20.2449ZM304.713 20.2449C304.713 20.6925 304.781 21.113 304.916 21.5063C305.059 21.8929 305.255 22.2286 305.506 22.5134C305.764 22.7983 306.073 23.0255 306.432 23.195C306.798 23.3578 307.209 23.4391 307.663 23.4391C308.104 23.4391 308.501 23.3578 308.853 23.195C309.213 23.0255 309.514 22.7983 309.759 22.5134C310.01 22.2286 310.199 21.8929 310.328 21.5063C310.464 21.113 310.532 20.6925 310.532 20.2449C310.532 19.8108 310.464 19.3971 310.328 19.0038C310.199 18.6104 310.01 18.2646 309.759 17.9662C309.514 17.6678 309.213 17.4338 308.853 17.2642C308.501 17.0879 308.104 16.9997 307.663 16.9997C307.209 16.9997 306.798 17.0879 306.432 17.2642C306.073 17.4338 305.764 17.6678 305.506 17.9662C305.255 18.2646 305.059 18.6104 304.916 19.0038C304.781 19.3971 304.713 19.8108 304.713 20.2449ZM317.077 10.7129C317.077 10.4959 317.131 10.3128 317.24 10.1636C317.348 10.0144 317.535 9.93978 317.799 9.93978H320.292C320.359 9.93978 320.431 9.96012 320.505 10.0008C320.58 10.0347 320.648 10.0856 320.709 10.1534C320.777 10.2212 320.831 10.3026 320.872 10.3976C320.919 10.4925 320.943 10.5976 320.943 10.7129V25.9111C320.943 26.1689 320.868 26.3655 320.719 26.5012C320.576 26.63 320.39 26.6945 320.159 26.6945H317.799C317.535 26.6945 317.348 26.63 317.24 26.5012C317.131 26.3655 317.077 26.1689 317.077 25.9111V10.7129ZM323.678 20.2449C323.678 19.6209 323.756 19.0207 323.912 18.4443C324.075 17.8678 324.299 17.3354 324.583 16.8471C324.875 16.3521 325.221 15.9045 325.621 15.5043C326.028 15.0974 326.479 14.7515 326.974 14.4667C327.469 14.1819 328.002 13.9614 328.571 13.8055C329.148 13.6495 329.748 13.5715 330.372 13.5715C331.294 13.5715 332.159 13.7444 332.966 14.0903C333.78 14.4294 334.485 14.9007 335.082 15.5043C335.685 16.1011 336.16 16.8064 336.506 17.6203C336.859 18.4273 337.035 19.3022 337.035 20.2449C337.035 20.8688 336.954 21.469 336.791 22.0455C336.635 22.6151 336.411 23.1475 336.119 23.6426C335.835 24.1377 335.489 24.5887 335.082 24.9956C334.682 25.3957 334.234 25.7416 333.739 26.0332C333.244 26.3181 332.712 26.5385 332.142 26.6945C331.579 26.8504 330.989 26.9284 330.372 26.9284C329.748 26.9284 329.148 26.8504 328.571 26.6945C328.002 26.5385 327.469 26.3181 326.974 26.0332C326.479 25.7416 326.028 25.3957 325.621 24.9956C325.221 24.5887 324.875 24.1377 324.583 23.6426C324.299 23.1475 324.075 22.6151 323.912 22.0455C323.756 21.469 323.678 20.8688 323.678 20.2449ZM327.391 20.2449C327.391 20.6925 327.459 21.113 327.595 21.5063C327.737 21.8929 327.934 22.2286 328.185 22.5134C328.442 22.7983 328.751 23.0255 329.11 23.195C329.477 23.3578 329.887 23.4391 330.341 23.4391C330.782 23.4391 331.179 23.3578 331.532 23.195C331.891 23.0255 332.193 22.7983 332.437 22.5134C332.688 22.2286 332.878 21.8929 333.007 21.5063C333.142 21.113 333.21 20.6925 333.21 20.2449C333.21 19.8108 333.142 19.3971 333.007 19.0038C332.878 18.6104 332.688 18.2646 332.437 17.9662C332.193 17.6678 331.891 17.4338 331.532 17.2642C331.179 17.0879 330.782 16.9997 330.341 16.9997C329.887 16.9997 329.477 17.0879 329.11 17.2642C328.751 17.4338 328.442 17.6678 328.185 17.9662C327.934 18.2646 327.737 18.6104 327.595 19.0038C327.459 19.3971 327.391 19.8108 327.391 20.2449ZM349.114 26.2469C349.162 26.1112 349.192 25.962 349.206 25.7992C349.219 25.6365 349.226 25.4669 349.226 25.2906C349.226 25.2296 349.226 25.1855 349.226 25.1584C349.226 25.1244 349.223 25.0973 349.216 25.077C349.216 25.0566 349.216 25.0329 349.216 25.0058C349.216 24.9719 349.216 24.9244 349.216 24.8633C349.019 25.0736 348.819 25.2804 348.616 25.4839C348.412 25.6873 348.185 25.8705 347.934 26.0332C347.69 26.1892 347.412 26.3181 347.1 26.4198C346.788 26.5147 346.425 26.5622 346.012 26.5622C345.096 26.5622 344.248 26.4062 343.468 26.0943C342.688 25.7823 342.014 25.3483 341.444 24.7921C340.874 24.2292 340.43 23.5578 340.111 22.7779C339.793 21.998 339.633 21.1401 339.633 20.2042C339.633 19.2751 339.793 18.407 340.111 17.5999C340.43 16.7861 340.874 16.0808 341.444 15.484C342.014 14.8804 342.688 14.409 343.468 14.07C344.248 13.7241 345.096 13.5511 346.012 13.5511C346.432 13.5511 346.815 13.5986 347.161 13.6936C347.507 13.7885 347.822 13.9208 348.107 14.0903C348.399 14.2531 348.663 14.4463 348.901 14.6702C349.138 14.894 349.358 15.1313 349.562 15.3823L349.847 14.4769C349.887 14.3616 349.925 14.2565 349.959 14.1615C349.993 14.0666 350.037 13.9886 350.091 13.9275C350.145 13.8597 350.213 13.8088 350.294 13.7749C350.383 13.741 350.494 13.7241 350.63 13.7241H352.146C352.241 13.7241 352.336 13.741 352.431 13.7749C352.526 13.8088 352.61 13.8563 352.685 13.9174C352.766 13.9784 352.831 14.0564 352.878 14.1513C352.926 14.2463 352.949 14.3548 352.949 14.4769V24.8328C352.949 25.8908 352.777 26.8335 352.431 27.6609C352.085 28.4883 351.61 29.1868 351.006 29.7565C350.41 30.3262 349.701 30.7602 348.88 31.0586C348.06 31.357 347.178 31.5062 346.235 31.5062C345.869 31.5062 345.476 31.4723 345.055 31.4045C344.635 31.3434 344.214 31.2485 343.794 31.1196C343.38 30.9908 342.977 30.8246 342.583 30.6212C342.197 30.4245 341.854 30.1939 341.556 29.9294C341.454 29.8548 341.366 29.7599 341.291 29.6446C341.224 29.5361 341.19 29.414 341.19 29.2784C341.19 29.1088 341.254 28.9291 341.383 28.7392L342.349 27.4066C342.444 27.3048 342.532 27.2268 342.614 27.1726C342.695 27.1251 342.783 27.1014 342.878 27.1014C343.028 27.1014 343.214 27.1828 343.438 27.3455C343.607 27.5083 343.801 27.6371 344.018 27.7321C344.242 27.8338 344.469 27.9118 344.699 27.9661C344.937 28.0271 345.167 28.0644 345.391 28.078C345.622 28.0983 345.828 28.1085 346.012 28.1085C346.317 28.1085 346.636 28.0678 346.968 27.9864C347.3 27.905 347.609 27.783 347.894 27.6202C348.185 27.4642 348.44 27.2709 348.657 27.0403C348.88 26.8098 349.033 26.5453 349.114 26.2469ZM343.295 20.2042C343.295 20.6586 343.363 21.0824 343.499 21.4758C343.641 21.8624 343.841 22.1981 344.099 22.4829C344.357 22.7677 344.665 22.9915 345.025 23.1543C345.391 23.3171 345.795 23.3985 346.235 23.3985C346.669 23.3985 347.076 23.3239 347.456 23.1747C347.843 23.0187 348.178 22.805 348.463 22.5338C348.748 22.2625 348.975 21.9437 349.145 21.5775C349.321 21.2113 349.419 20.8146 349.44 20.3873V20.0516C349.419 19.6379 349.321 19.2479 349.145 18.8817C348.975 18.5087 348.748 18.1832 348.463 17.9051C348.178 17.6203 347.843 17.3965 347.456 17.2337C347.076 17.0642 346.669 16.9794 346.235 16.9794C345.795 16.9794 345.391 17.0676 345.025 17.2439C344.665 17.4134 344.357 17.644 344.099 17.9356C343.841 18.2273 343.641 18.5697 343.499 18.9631C343.363 19.3564 343.295 19.7701 343.295 20.2042ZM356.081 14.5684C356.081 14.3514 356.142 14.1649 356.264 14.0089C356.386 13.8529 356.576 13.7749 356.834 13.7749H359.164C359.245 13.7749 359.333 13.7953 359.428 13.836C359.523 13.8699 359.611 13.9241 359.693 13.9987C359.774 14.0666 359.842 14.1479 359.896 14.2429C359.957 14.3378 359.988 14.4463 359.988 14.5684V25.9111C359.988 26.1689 359.916 26.3655 359.774 26.5012C359.632 26.63 359.428 26.6945 359.164 26.6945H356.834C356.332 26.6945 356.081 26.4334 356.081 25.9111V14.5684ZM356.081 9.42096C356.081 9.13612 356.142 8.93606 356.264 8.82076C356.386 8.69869 356.576 8.63765 356.834 8.63765H359.194C359.432 8.63765 359.621 8.69869 359.764 8.82076C359.913 8.93606 359.988 9.13612 359.988 9.42096V11.4047C359.988 11.4861 359.967 11.5742 359.927 11.6692C359.893 11.7641 359.842 11.8557 359.774 11.9438C359.706 12.032 359.621 12.1066 359.52 12.1676C359.425 12.2219 359.316 12.249 359.194 12.249H356.834C356.332 12.249 356.081 11.9676 356.081 11.4047V9.42096ZM373.953 25.1482C373.356 25.6975 372.685 26.1282 371.939 26.4401C371.193 26.7453 370.403 26.8979 369.568 26.8979C368.639 26.8979 367.761 26.7284 366.934 26.3893C366.106 26.0502 365.381 25.5822 364.757 24.9854C364.133 24.3818 363.638 23.6731 363.271 22.8593C362.905 22.0455 362.722 21.1604 362.722 20.2042C362.722 19.6074 362.793 19.0309 362.936 18.4748C363.085 17.9119 363.292 17.3863 363.556 16.898C363.828 16.4097 364.153 15.9621 364.533 15.5552C364.919 15.1415 365.35 14.7888 365.825 14.4972C366.3 14.2056 366.815 13.9784 367.371 13.8156C367.927 13.6529 368.514 13.5715 369.131 13.5715C369.694 13.5715 370.24 13.6461 370.769 13.7953C371.298 13.9445 371.793 14.1547 372.254 14.426C372.722 14.6973 373.149 15.0228 373.536 15.4026C373.922 15.7824 374.255 16.1995 374.533 16.6539C374.811 17.1015 375.024 17.583 375.174 18.0984C375.33 18.607 375.408 19.1326 375.408 19.6752C375.408 20.0279 375.401 20.3161 375.387 20.5399C375.381 20.7637 375.33 20.9434 375.235 21.079C375.14 21.2079 374.98 21.2995 374.757 21.3537C374.54 21.4012 374.217 21.4249 373.79 21.4249H366.466C366.534 21.859 366.669 22.2218 366.873 22.5134C367.083 22.805 367.324 23.039 367.595 23.2153C367.866 23.3849 368.154 23.507 368.46 23.5816C368.765 23.6562 369.053 23.6935 369.324 23.6935C369.568 23.6935 369.819 23.6697 370.077 23.6223C370.335 23.568 370.582 23.5002 370.82 23.4188C371.064 23.3306 371.284 23.2323 371.481 23.1238C371.684 23.0085 371.847 22.8898 371.969 22.7677C372.078 22.6796 372.169 22.6151 372.244 22.5745C372.325 22.527 372.41 22.5032 372.498 22.5032C372.586 22.5032 372.675 22.5338 372.763 22.5948C372.858 22.6558 372.963 22.744 373.078 22.8593L374.156 24.08C374.231 24.1682 374.278 24.2496 374.299 24.3242C374.319 24.392 374.329 24.4632 374.329 24.5378C374.329 24.6735 374.292 24.7921 374.217 24.8939C374.143 24.9888 374.055 25.0736 373.953 25.1482ZM369.06 16.6742C368.795 16.6742 368.538 16.7285 368.287 16.837C368.043 16.9387 367.812 17.0777 367.595 17.2541C367.378 17.4304 367.181 17.6305 367.005 17.8543C366.835 18.0781 366.696 18.3052 366.588 18.5358H371.786C371.644 18.2713 371.488 18.0272 371.318 17.8034C371.155 17.5796 370.966 17.3829 370.748 17.2134C370.538 17.0438 370.294 16.9116 370.016 16.8166C369.745 16.7217 369.426 16.6742 369.06 16.6742ZM380.166 22.6762C380.349 22.8593 380.546 23.0153 380.756 23.1441C380.973 23.2662 381.18 23.3679 381.377 23.4493C381.573 23.5239 381.746 23.5782 381.896 23.6121C382.045 23.646 382.146 23.6629 382.201 23.6629C382.33 23.6629 382.492 23.6596 382.689 23.6528C382.892 23.6392 383.086 23.6087 383.269 23.5612C383.452 23.507 383.608 23.4222 383.737 23.3069C383.872 23.1916 383.94 23.0288 383.94 22.8186C383.94 22.6287 383.903 22.4795 383.828 22.371C383.754 22.2557 383.645 22.1608 383.503 22.0862C383.36 22.0048 383.184 21.9336 382.974 21.8725C382.77 21.8115 382.54 21.7403 382.282 21.6589C381.468 21.4419 380.797 21.1808 380.268 20.8756C379.739 20.5704 379.318 20.2313 379.006 19.8583C378.701 19.4785 378.488 19.0716 378.366 18.6376C378.243 18.2035 378.182 17.7457 378.182 17.2642C378.182 16.7013 378.294 16.1893 378.518 15.7281C378.742 15.267 379.061 14.8736 379.474 14.5481C379.888 14.2158 380.383 13.9614 380.96 13.7851C381.536 13.602 382.177 13.5104 382.882 13.5104C383.31 13.5104 383.71 13.5477 384.083 13.6223C384.456 13.6902 384.812 13.8021 385.151 13.9581C385.49 14.1073 385.819 14.3039 386.138 14.5481C386.463 14.7854 386.785 15.0703 387.104 15.4026C387.219 15.5382 387.277 15.6671 387.277 15.7892C387.284 15.9045 387.209 16.0299 387.053 16.1656C386.789 16.3826 386.534 16.5962 386.29 16.8064C386.053 17.0167 385.805 17.2507 385.548 17.5084C385.466 17.5762 385.385 17.6203 385.303 17.6406C385.222 17.6542 385.144 17.6508 385.069 17.6305C384.995 17.6101 384.924 17.5762 384.856 17.5287C384.788 17.4812 384.727 17.4236 384.673 17.3558C384.435 17.0913 384.164 16.915 383.859 16.8268C383.554 16.7318 383.269 16.6844 383.004 16.6844C382.672 16.6844 382.408 16.742 382.211 16.8573C382.014 16.9726 381.923 17.1489 381.936 17.3863C381.95 17.5626 382.014 17.7017 382.13 17.8034C382.252 17.8983 382.397 17.9763 382.567 18.0374C382.743 18.0984 382.926 18.1493 383.116 18.19C383.313 18.2239 383.493 18.2646 383.655 18.312C384.266 18.5087 384.825 18.7223 385.334 18.9529C385.843 19.1835 386.283 19.4683 386.656 19.8074C387.029 20.1398 387.318 20.5399 387.521 21.0078C387.731 21.4758 387.836 22.0455 387.836 22.7169C387.836 23.3883 387.701 23.9885 387.43 24.5175C387.165 25.0465 386.799 25.4907 386.331 25.8501C385.863 26.2096 385.307 26.4842 384.663 26.6741C384.025 26.864 383.337 26.959 382.597 26.959C382.177 26.959 381.75 26.9217 381.316 26.8471C380.882 26.7724 380.461 26.6538 380.054 26.491C379.647 26.3215 379.261 26.1078 378.895 25.8501C378.528 25.5856 378.203 25.2669 377.918 24.8939C377.843 24.7989 377.786 24.7006 377.745 24.5989C377.711 24.4903 377.694 24.3852 377.694 24.2835C377.701 24.1818 377.721 24.0902 377.755 24.0088C377.796 23.9207 377.857 23.8461 377.938 23.785L379.251 22.4727C379.413 22.3371 379.556 22.2896 379.678 22.3303C379.807 22.371 379.969 22.4863 380.166 22.6762Z" fill="url(#paint6_linear_5040_642)"/>
<defs>
<linearGradient id="paint0_linear_5040_642" x1="-1.76157e-07" y1="21.1875" x2="39.2422" y2="21.1875" gradientUnits="userSpaceOnUse">
<stop stop-color="#9E7440"/>
<stop offset="0.520833" stop-color="#FBF5AA"/>
<stop offset="1" stop-color="#9B7342"/>
</linearGradient>
<linearGradient id="paint1_linear_5040_642" x1="-1.76157e-07" y1="21.1875" x2="39.2422" y2="21.1875" gradientUnits="userSpaceOnUse">
<stop stop-color="#9E7440"/>
<stop offset="0.520833" stop-color="#FBF5AA"/>
<stop offset="1" stop-color="#9B7342"/>
</linearGradient>
<linearGradient id="paint2_linear_5040_642" x1="-1.76157e-07" y1="21.1875" x2="39.2422" y2="21.1875" gradientUnits="userSpaceOnUse">
<stop stop-color="#9E7440"/>
<stop offset="0.520833" stop-color="#FBF5AA"/>
<stop offset="1" stop-color="#9B7342"/>
</linearGradient>
<linearGradient id="paint3_linear_5040_642" x1="-1.76157e-07" y1="21.1875" x2="39.2422" y2="21.1875" gradientUnits="userSpaceOnUse">
<stop stop-color="#9E7440"/>
<stop offset="0.520833" stop-color="#FBF5AA"/>
<stop offset="1" stop-color="#9B7342"/>
</linearGradient>
<linearGradient id="paint4_linear_5040_642" x1="-1.76157e-07" y1="21.1875" x2="39.2422" y2="21.1875" gradientUnits="userSpaceOnUse">
<stop stop-color="#9E7440"/>
<stop offset="0.520833" stop-color="#FBF5AA"/>
<stop offset="1" stop-color="#9B7342"/>
</linearGradient>
<linearGradient id="paint5_linear_5040_642" x1="-1.76157e-07" y1="21.1875" x2="39.2422" y2="21.1875" gradientUnits="userSpaceOnUse">
<stop stop-color="#9E7440"/>
<stop offset="0.520833" stop-color="#FBF5AA"/>
<stop offset="1" stop-color="#9B7342"/>
</linearGradient>
<linearGradient id="paint6_linear_5040_642" x1="48.7793" y1="21.1337" x2="388.934" y2="21.1337" gradientUnits="userSpaceOnUse">
<stop stop-color="#9E7440"/>
<stop offset="0.520833" stop-color="#FBF5AA"/>
<stop offset="1" stop-color="#9B7342"/>
</linearGradient>
</defs>
</svg>
